<?xml version="1.0" encoding="utf-8" standalone="yes"?>
<svg xmlns="http://www.w3.org/2000/svg" viewBox="0 0 960 720" preserveAspectRatio="xMidYMid meet">

  <defs>
   <style type="text/css">
    .bg { fill: #FFFFFF; }
    .title { font-family: Arial, sans-serif; font-size: 22px; font-weight: bold; fill: #333333; }
    .subtitle { font-family: Arial, sans-serif; font-size: 14px; fill: #666666; }
    .axis-line { stroke: #CCCCCC; stroke-width: 1; fill: none; }
    .axis-line-bold { stroke: #999999; stroke-width: 1.5; fill: none; }
    .tick-label { font-family: Arial, sans-serif; font-size: 12px; fill: #666666; text-anchor: middle; }
    .y-tick-label { font-family: Arial, sans-serif; font-size: 12px; fill: #666666; text-anchor: end; }
    .bar-label { font-family: Arial, sans-serif; font-size: 11px; fill: #333333; text-anchor: end; }
    .legend-text { font-family: Arial, sans-serif; font-size: 11px; fill: #333333; }
    .source-text { font-family: Arial, sans-serif; font-size: 10px; fill: #999999; }
   </style>
  </defs>
  <rect class="bg" x="0" y="0" width="960" height="720" />
  <text class="title" x="70" y="42">CO2 Emissions by Country</text>
  <text class="subtitle" x="70" y="72">Billion metric tons</text>
  <line class="axis-line" x1="80" y1="95" x2="920" y2="95" />
  <text class="y-tick-label" x="72" y="99">14.5</text>
  <line class="axis-line" x1="80" y1="176" x2="920" y2="176" />
  <text class="y-tick-label" x="72" y="180">12.1</text>
  <line class="axis-line" x1="80" y1="257" x2="920" y2="257" />
  <text class="y-tick-label" x="72" y="261">9.8</text>
  <line class="axis-line" x1="80" y1="338" x2="920" y2="338" />
  <text class="y-tick-label" x="72" y="342">7.5</text>
  <line class="axis-line" x1="80" y1="418" x2="920" y2="418" />
  <text class="y-tick-label" x="72" y="422">5.2</text>
  <line class="axis-line" x1="80" y1="499" x2="920" y2="499" />
  <text class="y-tick-label" x="72" y="503">2.9</text>
  <line class="axis-line" x1="80" y1="580" x2="920" y2="580" />
  <text class="y-tick-label" x="72" y="584">0.5</text>
  <line class="axis-line" x1="80" y1="580" x2="80" y2="586" />
  <text class="tick-label" x="80" y="602">2010</text>
  <line class="axis-line" x1="192" y1="580" x2="192" y2="586" />
  <text class="tick-label" x="192" y="602">2012</text>
  <line class="axis-line" x1="304" y1="580" x2="304" y2="586" />
  <text class="tick-label" x="304" y="602">2014</text>
  <line class="axis-line" x1="416" y1="580" x2="416" y2="586" />
  <text class="tick-label" x="416" y="602">2016</text>
  <line class="axis-line" x1="528" y1="580" x2="528" y2="586" />
  <text class="tick-label" x="528" y="602">2018</text>
  <line class="axis-line" x1="640" y1="580" x2="640" y2="586" />
  <text class="tick-label" x="640" y="602">2020</text>
  <line class="axis-line" x1="752" y1="580" x2="752" y2="586" />
  <text class="tick-label" x="752" y="602">2022</text>
  <line class="axis-line" x1="864" y1="580" x2="864" y2="586" />
  <text class="tick-label" x="864" y="602">2024</text>
  <line class="axis-line-bold" x1="80" y1="580" x2="920" y2="580" />
  <line class="axis-line-bold" x1="80" y1="95" x2="80" y2="580" />
  <polyline points="80,303 136,278 192,268 248,257 304,254 360,257 416,261 472,250 528,240 584,233 640,226 696,198 752,177 808,160 864,146 920,135" fill="none" stroke="#E63946" stroke-width="2.5" />
  <polyline points="80,411 136,414 192,421 248,414 304,414 360,418 416,421 472,421 528,414 584,421 640,439 696,425 752,425 808,428 864,432 920,435" fill="none" stroke="#457B9D" stroke-width="2.5" />
  <polyline points="80,540 136,536 192,529 248,526 304,522 360,519 416,515 472,512 528,508 584,508 640,515 696,505 752,501 808,494 864,491 920,494" fill="none" stroke="#2A9D8F" stroke-width="2.5" />
  <polyline points="80,473 136,477 192,480 248,487 304,491 360,491 416,491 472,487 528,494 584,501 640,508 696,505 752,505 808,508 864,512 920,512" fill="none" stroke="#E9C46A" stroke-width="2.5" />
  <line x1="80" y1="650" x2="100" y2="650" stroke="#E63946" stroke-width="2.5" />
  <text class="legend-text" x="105" y="654">China</text>
  <line x1="260" y1="650" x2="280" y2="650" stroke="#457B9D" stroke-width="2.5" />
  <text class="legend-text" x="285" y="654">USA</text>
  <line x1="440" y1="650" x2="460" y2="650" stroke="#2A9D8F" stroke-width="2.5" />
  <text class="legend-text" x="465" y="654">India</text>
  <line x1="620" y1="650" x2="640" y2="650" stroke="#E9C46A" stroke-width="2.5" />
  <text class="legend-text" x="645" y="654">EU</text>
</svg>
