<?xml version="1.0" encoding="utf-8" standalone="yes"?>
<svg xmlns="http://www.w3.org/2000/svg" viewBox="0 0 960 720" preserveAspectRatio="xMidYMid meet">

  <defs>
   <style type="text/css">
    .bg { fill: #FFFFFF; }
    .title { font-family: Arial, sans-serif; font-size: 22px; font-weight: bold; fill: #333333; }
    .subtitle { font-family: Arial, sans-serif; font-size: 14px; fill: #666666; }
    .axis-line { stroke: #CCCCCC; stroke-width: 1; fill: none; }
    .axis-line-bold { stroke: #999999; stroke-width: 1.5; fill: none; }
    .tick-label { font-family: Arial, sans-serif; font-size: 12px; fill: #666666; text-anchor: middle; }
    .y-tick-label { font-family: Arial, sans-serif; font-size: 12px; fill: #666666; text-anchor: end; }
    .bar-label { font-family: Arial, sans-serif; font-size: 11px; fill: #333333; text-anchor: end; }
    .legend-text { font-family: Arial, sans-serif; font-size: 11px; fill: #333333; }
    .source-text { font-family: Arial, sans-serif; font-size: 10px; fill: #999999; }
   </style>
  </defs>
  <rect class="bg" x="0" y="0" width="960" height="720" />
  <text class="title" x="70" y="42">World Population by Continent</text>
  <text class="subtitle" x="70" y="72">Billions</text>
  <line class="axis-line" x1="80" y1="95" x2="920" y2="95" />
  <text class="y-tick-label" x="72" y="99">7.8</text>
  <line class="axis-line" x1="80" y1="176" x2="920" y2="176" />
  <text class="y-tick-label" x="72" y="180">6.5</text>
  <line class="axis-line" x1="80" y1="257" x2="920" y2="257" />
  <text class="y-tick-label" x="72" y="261">5.2</text>
  <line class="axis-line" x1="80" y1="338" x2="920" y2="338" />
  <text class="y-tick-label" x="72" y="342">3.9</text>
  <line class="axis-line" x1="80" y1="418" x2="920" y2="418" />
  <text class="y-tick-label" x="72" y="422">2.6</text>
  <line class="axis-line" x1="80" y1="499" x2="920" y2="499" />
  <text class="y-tick-label" x="72" y="503">1.3</text>
  <line class="axis-line" x1="80" y1="580" x2="920" y2="580" />
  <text class="y-tick-label" x="72" y="584">0.0</text>
  <text class="tick-label" x="80" y="602">2000</text>
  <text class="tick-label" x="290" y="602">2005</text>
  <text class="tick-label" x="500" y="602">2010</text>
  <text class="tick-label" x="710" y="602">2015</text>
  <text class="tick-label" x="920" y="602">2020</text>
  <line class="axis-line-bold" x1="80" y1="580" x2="920" y2="580" />
  <line class="axis-line-bold" x1="80" y1="95" x2="80" y2="580" />
  <polygon points="80,201 290,179 500,150 710,122 920,95 920,97 710,125 500,152 290,181 80,203" fill="#E9C46A" fill-opacity="0.7" stroke="#E9C46A" stroke-width="1" />
  <polygon points="80,203 290,181 500,152 710,125 920,97 920,161 710,186 500,211 290,236 80,255" fill="#2A9D8F" fill-opacity="0.7" stroke="#2A9D8F" stroke-width="1" />
  <polygon points="80,255 290,236 500,211 710,186 920,161 920,207 710,232 500,257 290,282 80,300" fill="#457B9D" fill-opacity="0.7" stroke="#457B9D" stroke-width="1" />
  <polygon points="80,300 290,282 500,257 710,232 920,207 920,294 710,306 500,319 290,338 80,350" fill="#F4A261" fill-opacity="0.7" stroke="#F4A261" stroke-width="1" />
  <polygon points="80,350 290,338 500,319 710,306 920,294 920,580 710,580 500,580 290,580 80,580" fill="#E63946" fill-opacity="0.7" stroke="#E63946" stroke-width="1" />
  <rect x="80" y="644" width="14" height="14" fill="#E63946" fill-opacity="0.7" />
  <text class="legend-text" x="100" y="655">Asia</text>
  <rect x="260" y="644" width="14" height="14" fill="#F4A261" fill-opacity="0.7" />
  <text class="legend-text" x="280" y="655">Africa</text>
  <rect x="440" y="644" width="14" height="14" fill="#457B9D" fill-opacity="0.7" />
  <text class="legend-text" x="460" y="655">Europe</text>
  <rect x="620" y="644" width="14" height="14" fill="#2A9D8F" fill-opacity="0.7" />
  <text class="legend-text" x="640" y="655">Americas</text>
  <rect x="800" y="644" width="14" height="14" fill="#E9C46A" fill-opacity="0.7" />
  <text class="legend-text" x="820" y="655">Oceania</text>
</svg>
