<?xml version="1.0" encoding="utf-8" standalone="yes"?>
<svg xmlns="http://www.w3.org/2000/svg" viewBox="0 0 960 720" preserveAspectRatio="xMidYMid meet">

  <defs>
   <style type="text/css">
    .bg { fill: #FFFFFF; }
    .title { font-family: Arial, sans-serif; font-size: 22px; font-weight: bold; fill: #333333; }
    .subtitle { font-family: Arial, sans-serif; font-size: 14px; fill: #666666; }
    .axis-line { stroke: #CCCCCC; stroke-width: 1; fill: none; }
    .axis-line-bold { stroke: #999999; stroke-width: 1.5; fill: none; }
    .tick-label { font-family: Arial, sans-serif; font-size: 12px; fill: #666666; text-anchor: middle; }
    .y-tick-label { font-family: Arial, sans-serif; font-size: 12px; fill: #666666; text-anchor: end; }
    .bar-label { font-family: Arial, sans-serif; font-size: 11px; fill: #333333; text-anchor: end; }
    .legend-text { font-family: Arial, sans-serif; font-size: 11px; fill: #333333; }
    .source-text { font-family: Arial, sans-serif; font-size: 10px; fill: #999999; }
   </style>
  </defs>
  <rect class="bg" x="0" y="0" width="960" height="720" />
  <text class="title" x="70" y="42">Global Cloud Computing Market Share</text>
  <text class="subtitle" x="70" y="72">Per cent of market</text>
  <line class="axis-line" x1="80" y1="95" x2="920" y2="95" />
  <text class="y-tick-label" x="72" y="99">100.0</text>
  <line class="axis-line" x1="80" y1="176" x2="920" y2="176" />
  <text class="y-tick-label" x="72" y="180">83.3</text>
  <line class="axis-line" x1="80" y1="257" x2="920" y2="257" />
  <text class="y-tick-label" x="72" y="261">66.7</text>
  <line class="axis-line" x1="80" y1="338" x2="920" y2="338" />
  <text class="y-tick-label" x="72" y="342">50.0</text>
  <line class="axis-line" x1="80" y1="418" x2="920" y2="418" />
  <text class="y-tick-label" x="72" y="422">33.3</text>
  <line class="axis-line" x1="80" y1="499" x2="920" y2="499" />
  <text class="y-tick-label" x="72" y="503">16.7</text>
  <line class="axis-line" x1="80" y1="580" x2="920" y2="580" />
  <text class="y-tick-label" x="72" y="584">0.0</text>
  <text class="tick-label" x="80" y="602">2018</text>
  <text class="tick-label" x="200" y="602">2019</text>
  <text class="tick-label" x="320" y="602">2020</text>
  <text class="tick-label" x="440" y="602">2021</text>
  <text class="tick-label" x="560" y="602">2022</text>
  <text class="tick-label" x="680" y="602">2023</text>
  <text class="tick-label" x="800" y="602">2024</text>
  <text class="tick-label" x="920" y="602">2025</text>
  <line class="axis-line-bold" x1="80" y1="580" x2="920" y2="580" />
  <line class="axis-line-bold" x1="80" y1="95" x2="80" y2="580" />
  <polygon points="80,95 200,95 320,95 440,95 560,95 680,95 800,95 920,95 920,240 800,250 680,255 560,260 440,274 320,289 200,299 80,304" fill="#96CEB4" fill-opacity="0.7" stroke="#96CEB4" stroke-width="1" />
  <polygon points="80,304 200,299 320,289 440,274 560,260 680,255 800,250 920,240 920,304 800,308 680,308 560,308 440,323 320,333 200,338 80,342" fill="#E63946" fill-opacity="0.7" stroke="#E63946" stroke-width="1" />
  <polygon points="80,342 200,338 320,333 440,323 560,308 680,308 800,308 920,304 920,430 800,430 680,425 560,415 440,425 320,430 200,425 80,420" fill="#457B9D" fill-opacity="0.7" stroke="#457B9D" stroke-width="1" />
  <polygon points="80,420 200,425 320,430 440,425 560,415 680,425 800,430 920,430 920,580 800,580 680,580 560,580 440,580 320,580 200,580 80,580" fill="#F4A261" fill-opacity="0.7" stroke="#F4A261" stroke-width="1" />
  <rect x="80" y="644" width="14" height="14" fill="#F4A261" fill-opacity="0.7" />
  <text class="legend-text" x="100" y="655">AWS</text>
  <rect x="260" y="644" width="14" height="14" fill="#457B9D" fill-opacity="0.7" />
  <text class="legend-text" x="280" y="655">Azure</text>
  <rect x="440" y="644" width="14" height="14" fill="#E63946" fill-opacity="0.7" />
  <text class="legend-text" x="460" y="655">Google Cloud</text>
  <rect x="620" y="644" width="14" height="14" fill="#96CEB4" fill-opacity="0.7" />
  <text class="legend-text" x="640" y="655">Others</text>
</svg>
