<?xml version="1.0" encoding="utf-8" standalone="yes"?>
<svg xmlns="http://www.w3.org/2000/svg" viewBox="0 0 960 720" preserveAspectRatio="xMidYMid meet">

  <defs>
   <style type="text/css">
    .bg { fill: #FFFFFF; }
    .title { font-family: Arial, sans-serif; font-size: 22px; font-weight: bold; fill: #333333; }
    .subtitle { font-family: Arial, sans-serif; font-size: 14px; fill: #666666; }
    .axis-line { stroke: #CCCCCC; stroke-width: 1; fill: none; }
    .axis-line-bold { stroke: #999999; stroke-width: 1.5; fill: none; }
    .tick-label { font-family: Arial, sans-serif; font-size: 12px; fill: #666666; text-anchor: middle; }
    .y-tick-label { font-family: Arial, sans-serif; font-size: 12px; fill: #666666; text-anchor: end; }
    .bar-label { font-family: Arial, sans-serif; font-size: 11px; fill: #333333; text-anchor: end; }
    .legend-text { font-family: Arial, sans-serif; font-size: 11px; fill: #333333; }
    .source-text { font-family: Arial, sans-serif; font-size: 10px; fill: #999999; }
   </style>
  </defs>
  <rect class="bg" x="0" y="0" width="960" height="720" />
  <text class="title" x="70" y="42">European Electricity Generation Mix</text>
  <text class="subtitle" x="70" y="72">Terawatt hours</text>
  <line class="axis-line" x1="80" y1="95" x2="920" y2="95" />
  <text class="y-tick-label" x="72" y="99">3340.0</text>
  <line class="axis-line" x1="80" y1="176" x2="920" y2="176" />
  <text class="y-tick-label" x="72" y="180">2783.3</text>
  <line class="axis-line" x1="80" y1="257" x2="920" y2="257" />
  <text class="y-tick-label" x="72" y="261">2226.7</text>
  <line class="axis-line" x1="80" y1="338" x2="920" y2="338" />
  <text class="y-tick-label" x="72" y="342">1670.0</text>
  <line class="axis-line" x1="80" y1="418" x2="920" y2="418" />
  <text class="y-tick-label" x="72" y="422">1113.3</text>
  <line class="axis-line" x1="80" y1="499" x2="920" y2="499" />
  <text class="y-tick-label" x="72" y="503">556.7</text>
  <line class="axis-line" x1="80" y1="580" x2="920" y2="580" />
  <text class="y-tick-label" x="72" y="584">0.0</text>
  <text class="tick-label" x="80" y="602">2015</text>
  <text class="tick-label" x="164" y="602">2016</text>
  <text class="tick-label" x="248" y="602">2017</text>
  <text class="tick-label" x="332" y="602">2018</text>
  <text class="tick-label" x="416" y="602">2019</text>
  <text class="tick-label" x="500" y="602">2020</text>
  <text class="tick-label" x="584" y="602">2021</text>
  <text class="tick-label" x="668" y="602">2022</text>
  <text class="tick-label" x="752" y="602">2023</text>
  <text class="tick-label" x="836" y="602">2024</text>
  <text class="tick-label" x="920" y="602">2025</text>
  <line class="axis-line-bold" x1="80" y1="580" x2="920" y2="580" />
  <line class="axis-line-bold" x1="80" y1="95" x2="80" y2="580" />
  <polygon points="80,95 164,98 248,104 332,102 416,99 500,98 584,96 668,102 752,107 836,108 920,104 920,191 836,194 752,194 668,186 584,185 500,188 416,186 332,184 248,182 164,184 80,179" fill="#457B9D" fill-opacity="0.7" stroke="#457B9D" stroke-width="1" />
  <polygon points="80,179 164,184 248,182 332,184 416,186 500,188 584,185 668,186 752,194 836,194 920,191 920,342 836,333 752,322 668,304 584,287 500,278 416,269 332,258 248,250 164,243 80,234" fill="#2A9D8F" fill-opacity="0.7" stroke="#2A9D8F" stroke-width="1" />
  <polygon points="80,234 164,243 248,250 332,258 416,269 500,278 584,287 668,304 752,322 836,333 920,342 920,435 836,428 752,420 668,406 584,398 500,391 416,384 332,374 248,368 164,362 80,355" fill="#F4A261" fill-opacity="0.7" stroke="#F4A261" stroke-width="1" />
  <polygon points="80,355 164,362 248,368 332,374 416,384 500,391 584,398 668,406 752,420 836,428 920,435 920,580 836,580 752,580 668,580 584,580 500,580 416,580 332,580 248,580 164,580 80,580" fill="#666666" fill-opacity="0.7" stroke="#666666" stroke-width="1" />
  <rect x="80" y="644" width="14" height="14" fill="#666666" fill-opacity="0.7" />
  <text class="legend-text" x="100" y="655">Fossil Fuels</text>
  <rect x="260" y="644" width="14" height="14" fill="#F4A261" fill-opacity="0.7" />
  <text class="legend-text" x="280" y="655">Nuclear</text>
  <rect x="440" y="644" width="14" height="14" fill="#2A9D8F" fill-opacity="0.7" />
  <text class="legend-text" x="460" y="655">Wind & Solar</text>
  <rect x="620" y="644" width="14" height="14" fill="#457B9D" fill-opacity="0.7" />
  <text class="legend-text" x="640" y="655">Hydro</text>
</svg>
