<?xml version="1.0" encoding="utf-8" standalone="yes"?>
<svg xmlns="http://www.w3.org/2000/svg" viewBox="0 0 960 720" preserveAspectRatio="xMidYMid meet">

  <defs>
   <style type="text/css">
    .bg { fill: #FFFFFF; }
    .title { font-family: Arial, sans-serif; font-size: 22px; font-weight: bold; fill: #333333; }
    .subtitle { font-family: Arial, sans-serif; font-size: 14px; fill: #666666; }
    .axis-line { stroke: #CCCCCC; stroke-width: 1; fill: none; }
    .axis-line-bold { stroke: #999999; stroke-width: 1.5; fill: none; }
    .tick-label { font-family: Arial, sans-serif; font-size: 12px; fill: #666666; text-anchor: middle; }
    .y-tick-label { font-family: Arial, sans-serif; font-size: 12px; fill: #666666; text-anchor: end; }
    .bar-label { font-family: Arial, sans-serif; font-size: 11px; fill: #333333; text-anchor: end; }
    .legend-text { font-family: Arial, sans-serif; font-size: 11px; fill: #333333; }
    .source-text { font-family: Arial, sans-serif; font-size: 10px; fill: #999999; }
   </style>
  </defs>
  <rect class="bg" x="0" y="0" width="960" height="720" />
  <text class="title" x="70" y="42">US Vehicle Sales by Type</text>
  <text class="subtitle" x="70" y="72">Millions of units</text>
  <line class="axis-line" x1="80" y1="95" x2="920" y2="95" />
  <text class="y-tick-label" x="72" y="99">17.4</text>
  <line class="axis-line" x1="80" y1="176" x2="920" y2="176" />
  <text class="y-tick-label" x="72" y="180">14.5</text>
  <line class="axis-line" x1="80" y1="257" x2="920" y2="257" />
  <text class="y-tick-label" x="72" y="261">11.6</text>
  <line class="axis-line" x1="80" y1="338" x2="920" y2="338" />
  <text class="y-tick-label" x="72" y="342">8.7</text>
  <line class="axis-line" x1="80" y1="418" x2="920" y2="418" />
  <text class="y-tick-label" x="72" y="422">5.8</text>
  <line class="axis-line" x1="80" y1="499" x2="920" y2="499" />
  <text class="y-tick-label" x="72" y="503">2.9</text>
  <line class="axis-line" x1="80" y1="580" x2="920" y2="580" />
  <text class="y-tick-label" x="72" y="584">0.0</text>
  <text class="tick-label" x="80" y="602">2015</text>
  <text class="tick-label" x="164" y="602">2016</text>
  <text class="tick-label" x="248" y="602">2017</text>
  <text class="tick-label" x="332" y="602">2018</text>
  <text class="tick-label" x="416" y="602">2019</text>
  <text class="tick-label" x="500" y="602">2020</text>
  <text class="tick-label" x="584" y="602">2021</text>
  <text class="tick-label" x="668" y="602">2022</text>
  <text class="tick-label" x="752" y="602">2023</text>
  <text class="tick-label" x="836" y="602">2024</text>
  <text class="tick-label" x="920" y="602">2025</text>
  <line class="axis-line-bold" x1="80" y1="580" x2="920" y2="580" />
  <line class="axis-line-bold" x1="80" y1="95" x2="80" y2="580" />
  <polygon points="80,95 164,95 248,101 332,106 416,115 500,173 584,159 668,156 752,151 836,148 920,145 920,195 836,198 752,204 668,212 584,218 500,234 416,184 332,181 248,179 164,176 80,179" fill="#E9C46A" fill-opacity="0.7" stroke="#E9C46A" stroke-width="1" />
  <polygon points="80,179 164,176 248,179 332,181 416,184 500,234 584,218 668,212 752,204 836,198 920,195 920,259 836,265 752,273 668,285 584,296 500,318 416,285 332,296 248,307 164,324 80,340" fill="#2A9D8F" fill-opacity="0.7" stroke="#2A9D8F" stroke-width="1" />
  <polygon points="80,340 164,324 248,307 332,296 416,285 500,318 584,296 668,285 752,273 836,265 920,259 920,351 836,357 752,363 668,371 584,379 500,399 416,374 332,382 248,390 164,402 80,416" fill="#457B9D" fill-opacity="0.7" stroke="#457B9D" stroke-width="1" />
  <polygon points="80,416 164,402 248,390 332,382 416,374 500,399 584,379 668,371 752,363 836,357 920,351 920,580 836,580 752,580 668,580 584,580 500,580 416,580 332,580 248,580 164,580 80,580" fill="#E63946" fill-opacity="0.7" stroke="#E63946" stroke-width="1" />
  <rect x="80" y="644" width="14" height="14" fill="#E63946" fill-opacity="0.7" />
  <text class="legend-text" x="100" y="655">SUV/CUV</text>
  <rect x="260" y="644" width="14" height="14" fill="#457B9D" fill-opacity="0.7" />
  <text class="legend-text" x="280" y="655">Pickup</text>
  <rect x="440" y="644" width="14" height="14" fill="#2A9D8F" fill-opacity="0.7" />
  <text class="legend-text" x="460" y="655">Sedan</text>
  <rect x="620" y="644" width="14" height="14" fill="#E9C46A" fill-opacity="0.7" />
  <text class="legend-text" x="640" y="655">Other</text>
</svg>
