<?xml version="1.0" encoding="utf-8" standalone="yes"?>
<svg xmlns="http://www.w3.org/2000/svg" viewBox="0 0 960 720" preserveAspectRatio="xMidYMid meet">

  <defs>
   <style type="text/css">
    .bg { fill: #FFFFFF; }
    .title { font-family: Arial, sans-serif; font-size: 22px; font-weight: bold; fill: #333333; }
    .subtitle { font-family: Arial, sans-serif; font-size: 14px; fill: #666666; }
    .axis-line { stroke: #CCCCCC; stroke-width: 1; fill: none; }
    .axis-line-bold { stroke: #999999; stroke-width: 1.5; fill: none; }
    .tick-label { font-family: Arial, sans-serif; font-size: 12px; fill: #666666; text-anchor: middle; }
    .y-tick-label { font-family: Arial, sans-serif; font-size: 12px; fill: #666666; text-anchor: end; }
    .bar-label { font-family: Arial, sans-serif; font-size: 11px; fill: #333333; text-anchor: end; }
    .legend-text { font-family: Arial, sans-serif; font-size: 11px; fill: #333333; }
    .source-text { font-family: Arial, sans-serif; font-size: 10px; fill: #999999; }
   </style>
  </defs>
  <rect class="bg" x="0" y="0" width="960" height="720" />
  <text class="title" x="70" y="42">UN Peacekeeping Personnel</text>
  <text class="subtitle" x="70" y="72">Thousands</text>
  <line class="axis-line" x1="80" y1="95" x2="920" y2="95" />
  <text class="y-tick-label" x="72" y="99">104.0</text>
  <line class="axis-line" x1="80" y1="176" x2="920" y2="176" />
  <text class="y-tick-label" x="72" y="180">86.7</text>
  <line class="axis-line" x1="80" y1="257" x2="920" y2="257" />
  <text class="y-tick-label" x="72" y="261">69.3</text>
  <line class="axis-line" x1="80" y1="338" x2="920" y2="338" />
  <text class="y-tick-label" x="72" y="342">52.0</text>
  <line class="axis-line" x1="80" y1="418" x2="920" y2="418" />
  <text class="y-tick-label" x="72" y="422">34.7</text>
  <line class="axis-line" x1="80" y1="499" x2="920" y2="499" />
  <text class="y-tick-label" x="72" y="503">17.3</text>
  <line class="axis-line" x1="80" y1="580" x2="920" y2="580" />
  <text class="y-tick-label" x="72" y="584">0.0</text>
  <text class="tick-label" x="80" y="602">2010</text>
  <text class="tick-label" x="192" y="602">2012</text>
  <text class="tick-label" x="304" y="602">2014</text>
  <text class="tick-label" x="416" y="602">2016</text>
  <text class="tick-label" x="528" y="602">2018</text>
  <text class="tick-label" x="640" y="602">2020</text>
  <text class="tick-label" x="752" y="602">2022</text>
  <text class="tick-label" x="864" y="602">2024</text>
  <line class="axis-line-bold" x1="80" y1="580" x2="920" y2="580" />
  <line class="axis-line-bold" x1="80" y1="95" x2="80" y2="580" />
  <polygon points="80,95 136,104 192,123 248,123 304,118 360,109 416,128 472,142 528,165 584,184 640,212 696,221 752,230 808,240 864,249 920,254 920,272 864,268 808,258 752,249 696,240 640,230 584,207 528,188 472,165 416,151 360,132 304,142 248,146 192,146 136,132 80,123" fill="#E9C46A" fill-opacity="0.7" stroke="#E9C46A" stroke-width="1" />
  <polygon points="80,123 136,132 192,146 248,146 304,142 360,132 416,151 472,165 528,188 584,207 640,230 696,240 752,249 808,258 864,268 920,272 920,314 864,310 808,300 752,296 696,286 640,277 584,258 528,240 472,221 416,207 360,193 304,198 248,207 192,216 136,198 80,188" fill="#2A9D8F" fill-opacity="0.7" stroke="#2A9D8F" stroke-width="1" />
  <polygon points="80,188 136,198 192,216 248,207 304,198 360,193 416,207 472,221 528,240 584,258 640,277 696,286 752,296 808,300 864,310 920,314 920,580 864,580 808,580 752,580 696,580 640,580 584,580 528,580 472,580 416,580 360,580 304,580 248,580 192,580 136,580 80,580" fill="#457B9D" fill-opacity="0.7" stroke="#457B9D" stroke-width="1" />
  <rect x="80" y="644" width="14" height="14" fill="#457B9D" fill-opacity="0.7" />
  <text class="legend-text" x="100" y="655">Military</text>
  <rect x="260" y="644" width="14" height="14" fill="#2A9D8F" fill-opacity="0.7" />
  <text class="legend-text" x="280" y="655">Police</text>
  <rect x="440" y="644" width="14" height="14" fill="#E9C46A" fill-opacity="0.7" />
  <text class="legend-text" x="460" y="655">Civilian</text>
</svg>
