<?xml version="1.0" encoding="utf-8" standalone="yes"?>
<svg xmlns="http://www.w3.org/2000/svg" viewBox="0 0 960 720" preserveAspectRatio="xMidYMid meet">

  <defs>
   <style type="text/css">
    .bg { fill: #FFFFFF; }
    .title { font-family: Arial, sans-serif; font-size: 22px; font-weight: bold; fill: #333333; }
    .subtitle { font-family: Arial, sans-serif; font-size: 14px; fill: #666666; }
    .axis-line { stroke: #CCCCCC; stroke-width: 1; fill: none; }
    .axis-line-bold { stroke: #999999; stroke-width: 1.5; fill: none; }
    .tick-label { font-family: Arial, sans-serif; font-size: 12px; fill: #666666; text-anchor: middle; }
    .y-tick-label { font-family: Arial, sans-serif; font-size: 12px; fill: #666666; text-anchor: end; }
    .bar-label { font-family: Arial, sans-serif; font-size: 11px; fill: #333333; text-anchor: end; }
    .legend-text { font-family: Arial, sans-serif; font-size: 11px; fill: #333333; }
    .source-text { font-family: Arial, sans-serif; font-size: 10px; fill: #999999; }
   </style>
  </defs>
  <rect class="bg" x="0" y="0" width="960" height="720" />
  <text class="title" x="70" y="42">Global Ad Spending by Medium</text>
  <text class="subtitle" x="70" y="72">USD billions</text>
  <line class="axis-line" x1="80" y1="95" x2="920" y2="95" />
  <text class="y-tick-label" x="72" y="99">892.0</text>
  <line class="axis-line" x1="80" y1="176" x2="920" y2="176" />
  <text class="y-tick-label" x="72" y="180">743.3</text>
  <line class="axis-line" x1="80" y1="257" x2="920" y2="257" />
  <text class="y-tick-label" x="72" y="261">594.7</text>
  <line class="axis-line" x1="80" y1="338" x2="920" y2="338" />
  <text class="y-tick-label" x="72" y="342">446.0</text>
  <line class="axis-line" x1="80" y1="418" x2="920" y2="418" />
  <text class="y-tick-label" x="72" y="422">297.3</text>
  <line class="axis-line" x1="80" y1="499" x2="920" y2="499" />
  <text class="y-tick-label" x="72" y="503">148.7</text>
  <line class="axis-line" x1="80" y1="580" x2="920" y2="580" />
  <text class="y-tick-label" x="72" y="584">0.0</text>
  <text class="tick-label" x="80" y="602">2018</text>
  <text class="tick-label" x="200" y="602">2019</text>
  <text class="tick-label" x="320" y="602">2020</text>
  <text class="tick-label" x="440" y="602">2021</text>
  <text class="tick-label" x="560" y="602">2022</text>
  <text class="tick-label" x="680" y="602">2023</text>
  <text class="tick-label" x="800" y="602">2024</text>
  <text class="tick-label" x="920" y="602">2025</text>
  <line class="axis-line-bold" x1="80" y1="580" x2="920" y2="580" />
  <line class="axis-line-bold" x1="80" y1="95" x2="80" y2="580" />
  <polygon points="80,265 200,250 320,251 440,202 560,164 680,138 800,115 920,95 920,119 800,140 680,164 560,190 440,229 320,277 200,279 80,295" fill="#E9C46A" fill-opacity="0.7" stroke="#E9C46A" stroke-width="1" />
  <polygon points="80,295 200,279 320,277 440,229 560,190 680,164 800,140 920,119 920,135 800,157 680,182 560,209 440,250 320,299 200,308 80,327" fill="#666666" fill-opacity="0.7" stroke="#666666" stroke-width="1" />
  <polygon points="80,327 200,308 320,299 440,250 560,209 680,182 800,157 920,135 920,221 800,245 680,272 560,300 440,342 320,386 200,403 80,426" fill="#457B9D" fill-opacity="0.7" stroke="#457B9D" stroke-width="1" />
  <polygon points="80,426 200,403 320,386 440,342 560,300 680,272 800,245 920,221 920,580 800,580 680,580 560,580 440,580 320,580 200,580 80,580" fill="#E63946" fill-opacity="0.7" stroke="#E63946" stroke-width="1" />
  <rect x="80" y="644" width="14" height="14" fill="#E63946" fill-opacity="0.7" />
  <text class="legend-text" x="100" y="655">Digital</text>
  <rect x="260" y="644" width="14" height="14" fill="#457B9D" fill-opacity="0.7" />
  <text class="legend-text" x="280" y="655">TV</text>
  <rect x="440" y="644" width="14" height="14" fill="#666666" fill-opacity="0.7" />
  <text class="legend-text" x="460" y="655">Print</text>
  <rect x="620" y="644" width="14" height="14" fill="#E9C46A" fill-opacity="0.7" />
  <text class="legend-text" x="640" y="655">Other</text>
</svg>
