<?xml version="1.0" encoding="utf-8" standalone="yes"?>
<svg xmlns="http://www.w3.org/2000/svg" viewBox="0 0 960 720" preserveAspectRatio="xMidYMid meet">

  <defs>
   <style type="text/css">
    .bg { fill: #FFFFFF; }
    .title { font-family: Arial, sans-serif; font-size: 22px; font-weight: bold; fill: #333333; }
    .subtitle { font-family: Arial, sans-serif; font-size: 14px; fill: #666666; }
    .axis-line { stroke: #CCCCCC; stroke-width: 1; fill: none; }
    .axis-line-bold { stroke: #999999; stroke-width: 1.5; fill: none; }
    .tick-label { font-family: Arial, sans-serif; font-size: 12px; fill: #666666; text-anchor: middle; }
    .y-tick-label { font-family: Arial, sans-serif; font-size: 12px; fill: #666666; text-anchor: end; }
    .bar-label { font-family: Arial, sans-serif; font-size: 11px; fill: #333333; text-anchor: end; }
    .legend-text { font-family: Arial, sans-serif; font-size: 11px; fill: #333333; }
    .source-text { font-family: Arial, sans-serif; font-size: 10px; fill: #999999; }
   </style>
  </defs>
  <rect class="bg" x="0" y="0" width="960" height="720" />
  <text class="title" x="130" y="42">Fastest Growing Economies 2025</text>
  <text class="subtitle" x="130" y="72">Real GDP growth rate, per cent</text>
  <line class="axis-line" x1="130" y1="90" x2="130" y2="670" />
  <line class="axis-line" x1="262" y1="90" x2="262" y2="670" />
  <line class="axis-line" x1="393" y1="90" x2="393" y2="670" />
  <line class="axis-line" x1="525" y1="90" x2="525" y2="670" />
  <line class="axis-line" x1="657" y1="90" x2="657" y2="670" />
  <line class="axis-line" x1="788" y1="90" x2="788" y2="670" />
  <line class="axis-line" x1="920" y1="90" x2="920" y2="670" />
  <text class="tick-label" x="130" y="692">0</text>
  <text class="tick-label" x="262" y="692">4.1</text>
  <text class="tick-label" x="393" y="692">8.1</text>
  <text class="tick-label" x="525" y="692">12.2</text>
  <text class="tick-label" x="657" y="692">16.3</text>
  <text class="tick-label" x="788" y="692">20.3</text>
  <text class="tick-label" x="920" y="692">24.4</text>
  <line class="axis-line-bold" x1="130" y1="90" x2="130" y2="670" />
  <rect x="130" y="103" width="790" height="22" fill="#E63946" />
  <text class="bar-label" x="125" y="120">Guyana</text>
  <rect x="130" y="139" width="405" height="22" fill="#457B9D" />
  <text class="bar-label" x="125" y="155">Libya</text>
  <rect x="130" y="174" width="363" height="22" fill="#2A9D8F" />
  <text class="bar-label" x="125" y="191">Palau</text>
  <rect x="130" y="210" width="327" height="22" fill="#E9C46A" />
  <text class="bar-label" x="125" y="226">Macao</text>
  <rect x="130" y="245" width="308" height="22" fill="#F4A261" />
  <text class="bar-label" x="125" y="262">Niger</text>
  <rect x="130" y="280" width="285" height="22" fill="#264653" />
  <text class="bar-label" x="125" y="297">Senegal</text>
  <rect x="130" y="316" width="227" height="22" fill="#6A0572" />
  <text class="bar-label" x="125" y="332">India</text>
  <rect x="130" y="351" width="204" height="22" fill="#1D3557" />
  <text class="bar-label" x="125" y="368">Philippines</text>
  <rect x="130" y="387" width="201" height="22" fill="#FF6B6B" />
  <text class="bar-label" x="125" y="403">Cambodia</text>
  <rect x="130" y="422" width="198" height="22" fill="#4ECDC4" />
  <text class="bar-label" x="125" y="439">Rwanda</text>
  <rect x="130" y="458" width="191" height="22" fill="#45B7D1" />
  <text class="bar-label" x="125" y="474">Bangladesh</text>
  <rect x="130" y="493" width="188" height="22" fill="#96CEB4" />
  <text class="bar-label" x="125" y="509">Vietnam</text>
  <rect x="130" y="528" width="172" height="22" fill="#A29BFE" />
  <text class="bar-label" x="125" y="545">Indonesia</text>
  <rect x="130" y="564" width="162" height="22" fill="#FD79A8" />
  <text class="bar-label" x="125" y="580">Kenya</text>
  <rect x="130" y="599" width="162" height="22" fill="#00B894" />
  <text class="bar-label" x="125" y="616">Uzbekistan</text>
  <rect x="130" y="635" width="146" height="22" fill="#74B9FF" />
  <text class="bar-label" x="125" y="651">Egypt</text>
</svg>
