<?xml version="1.0" encoding="utf-8" standalone="yes"?>
<svg xmlns="http://www.w3.org/2000/svg" viewBox="0 0 960 720" preserveAspectRatio="xMidYMid meet">

  <defs>
   <style type="text/css">
    .bg { fill: #FFFFFF; }
    .title { font-family: Arial, sans-serif; font-size: 22px; font-weight: bold; fill: #333333; }
    .subtitle { font-family: Arial, sans-serif; font-size: 14px; fill: #666666; }
    .axis-line { stroke: #CCCCCC; stroke-width: 1; fill: none; }
    .axis-line-bold { stroke: #999999; stroke-width: 1.5; fill: none; }
    .tick-label { font-family: Arial, sans-serif; font-size: 12px; fill: #666666; text-anchor: middle; }
    .y-tick-label { font-family: Arial, sans-serif; font-size: 12px; fill: #666666; text-anchor: end; }
    .bar-label { font-family: Arial, sans-serif; font-size: 11px; fill: #333333; text-anchor: end; }
    .legend-text { font-family: Arial, sans-serif; font-size: 11px; fill: #333333; }
    .source-text { font-family: Arial, sans-serif; font-size: 10px; fill: #999999; }
   </style>
  </defs>
  <rect class="bg" x="0" y="0" width="960" height="720" />
  <text class="title" x="70" y="42">EU Trade Balance with China</text>
  <text class="subtitle" x="70" y="72">EUR billions, monthly</text>
  <line class="axis-line" x1="80" y1="95" x2="920" y2="95" />
  <text class="y-tick-label" x="72" y="99">38.2</text>
  <line class="axis-line" x1="80" y1="176" x2="920" y2="176" />
  <text class="y-tick-label" x="72" y="180">30.9</text>
  <line class="axis-line" x1="80" y1="257" x2="920" y2="257" />
  <text class="y-tick-label" x="72" y="261">23.6</text>
  <line class="axis-line" x1="80" y1="338" x2="920" y2="338" />
  <text class="y-tick-label" x="72" y="342">16.3</text>
  <line class="axis-line" x1="80" y1="418" x2="920" y2="418" />
  <text class="y-tick-label" x="72" y="422">9.0</text>
  <line class="axis-line" x1="80" y1="499" x2="920" y2="499" />
  <text class="y-tick-label" x="72" y="503">1.7</text>
  <line class="axis-line" x1="80" y1="580" x2="920" y2="580" />
  <text class="y-tick-label" x="72" y="584">-5.7</text>
  <line class="axis-line-bold" x1="80" y1="517" x2="920" y2="517" />
  <text class="tick-label" x="80" y="602">2020</text>
  <text class="tick-label" x="246" y="602">2021</text>
  <text class="tick-label" x="411" y="602">2022</text>
  <text class="tick-label" x="577" y="602">2023</text>
  <text class="tick-label" x="743" y="602">2024</text>
  <text class="tick-label" x="920" y="602">2025</text>
  <line class="axis-line-bold" x1="80" y1="580" x2="920" y2="580" />
  <line class="axis-line-bold" x1="80" y1="95" x2="80" y2="580" />
  <polyline points="80,540 92,540 104,540 115,502 127,510 139,540 151,522 163,538 175,540 186,534 198,523 210,459 222,424 234,419 246,461 257,518 269,506 281,434 293,433 305,440 317,412 328,493 340,512 352,486 364,439 376,453 388,433 399,421 411,379 423,441 435,411 447,496 459,540 470,540 482,540 494,492 506,457 518,525 530,479 541,536 553,540 565,540 577,534 589,490 601,456 612,438 624,403 636,378 648,413 660,454 672,481 683,455 695,470 707,342 719,388 731,450 743,409 754,331 766,304 778,259 790,182 802,188 814,268 825,298 837,247 849,327 861,327 873,314 885,332 896,294 908,263 920,135" fill="none" stroke="#E63946" stroke-width="2" />
</svg>
