<?xml version="1.0" encoding="utf-8" standalone="yes"?>
<svg xmlns="http://www.w3.org/2000/svg" viewBox="0 0 960 720" preserveAspectRatio="xMidYMid meet">

  <defs>
   <style type="text/css">
    .bg { fill: #FFFFFF; }
    .title { font-family: Arial, sans-serif; font-size: 22px; font-weight: bold; fill: #333333; }
    .subtitle { font-family: Arial, sans-serif; font-size: 14px; fill: #666666; }
    .axis-line { stroke: #CCCCCC; stroke-width: 1; fill: none; }
    .axis-line-bold { stroke: #999999; stroke-width: 1.5; fill: none; }
    .tick-label { font-family: Arial, sans-serif; font-size: 12px; fill: #666666; text-anchor: middle; }
    .y-tick-label { font-family: Arial, sans-serif; font-size: 12px; fill: #666666; text-anchor: end; }
    .bar-label { font-family: Arial, sans-serif; font-size: 11px; fill: #333333; text-anchor: end; }
    .legend-text { font-family: Arial, sans-serif; font-size: 11px; fill: #333333; }
    .source-text { font-family: Arial, sans-serif; font-size: 10px; fill: #999999; }
   </style>
  </defs>
  <rect class="bg" x="0" y="0" width="960" height="720" />
  <text class="title" x="70" y="42">German Industrial Production</text>
  <text class="subtitle" x="70" y="72">Month-on-month percentage change</text>
  <line class="axis-line" x1="80" y1="95" x2="920" y2="95" />
  <text class="y-tick-label" x="72" y="99">34.1</text>
  <line class="axis-line" x1="80" y1="176" x2="920" y2="176" />
  <text class="y-tick-label" x="72" y="180">27.9</text>
  <line class="axis-line" x1="80" y1="257" x2="920" y2="257" />
  <text class="y-tick-label" x="72" y="261">21.7</text>
  <line class="axis-line" x1="80" y1="338" x2="920" y2="338" />
  <text class="y-tick-label" x="72" y="342">15.5</text>
  <line class="axis-line" x1="80" y1="418" x2="920" y2="418" />
  <text class="y-tick-label" x="72" y="422">9.3</text>
  <line class="axis-line" x1="80" y1="499" x2="920" y2="499" />
  <text class="y-tick-label" x="72" y="503">3.1</text>
  <line class="axis-line" x1="80" y1="580" x2="920" y2="580" />
  <text class="y-tick-label" x="72" y="584">-3.1</text>
  <line class="axis-line-bold" x1="80" y1="540" x2="920" y2="540" />
  <text class="tick-label" x="80" y="602">2020</text>
  <text class="tick-label" x="246" y="602">2021</text>
  <text class="tick-label" x="411" y="602">2022</text>
  <text class="tick-label" x="577" y="602">2023</text>
  <text class="tick-label" x="743" y="602">2024</text>
  <text class="tick-label" x="920" y="602">2025</text>
  <line class="axis-line-bold" x1="80" y1="580" x2="920" y2="580" />
  <line class="axis-line-bold" x1="80" y1="95" x2="80" y2="580" />
  <polyline points="80,535 92,515 104,468 115,488 127,540 139,528 151,519 163,540 175,506 186,482 198,521 210,500 222,508 234,540 246,522 257,524 269,540 281,519 293,500 305,523 317,507 328,467 340,495 352,480 364,480 376,392 388,464 399,437 411,449 423,453 435,379 447,379 459,292 470,309 482,295 494,314 506,341 518,339 530,350 541,342 553,424 565,346 577,352 589,284 601,324 612,312 624,189 636,223 648,281 660,302 672,284 683,257 695,206 707,216 719,279 731,296 743,248 754,229 766,306 778,307 790,253 802,169 814,148 825,135 837,184 849,217 861,215 873,195 885,173 896,191 908,236 920,267" fill="none" stroke="#2A9D8F" stroke-width="2" />
</svg>
