<?xml version="1.0" encoding="utf-8" standalone="yes"?>
<svg xmlns="http://www.w3.org/2000/svg" viewBox="0 0 960 720" preserveAspectRatio="xMidYMid meet">

  <defs>
   <style type="text/css">
    .bg { fill: #FFFFFF; }
    .title { font-family: Arial, sans-serif; font-size: 22px; font-weight: bold; fill: #333333; }
    .subtitle { font-family: Arial, sans-serif; font-size: 14px; fill: #666666; }
    .axis-line { stroke: #CCCCCC; stroke-width: 1; fill: none; }
    .axis-line-bold { stroke: #999999; stroke-width: 1.5; fill: none; }
    .tick-label { font-family: Arial, sans-serif; font-size: 12px; fill: #666666; text-anchor: middle; }
    .y-tick-label { font-family: Arial, sans-serif; font-size: 12px; fill: #666666; text-anchor: end; }
    .bar-label { font-family: Arial, sans-serif; font-size: 11px; fill: #333333; text-anchor: end; }
    .legend-text { font-family: Arial, sans-serif; font-size: 11px; fill: #333333; }
    .source-text { font-family: Arial, sans-serif; font-size: 10px; fill: #999999; }
   </style>
  </defs>
  <rect class="bg" x="0" y="0" width="960" height="720" />
  <text class="title" x="70" y="42">China PMI Manufacturing Index</text>
  <text class="subtitle" x="70" y="72">Index, 50 = expansion threshold</text>
  <line class="axis-line" x1="80" y1="95" x2="920" y2="95" />
  <text class="y-tick-label" x="72" y="99">67.3</text>
  <line class="axis-line" x1="80" y1="176" x2="920" y2="176" />
  <text class="y-tick-label" x="72" y="180">63.3</text>
  <line class="axis-line" x1="80" y1="257" x2="920" y2="257" />
  <text class="y-tick-label" x="72" y="261">59.3</text>
  <line class="axis-line" x1="80" y1="338" x2="920" y2="338" />
  <text class="y-tick-label" x="72" y="342">55.3</text>
  <line class="axis-line" x1="80" y1="418" x2="920" y2="418" />
  <text class="y-tick-label" x="72" y="422">51.3</text>
  <line class="axis-line" x1="80" y1="499" x2="920" y2="499" />
  <text class="y-tick-label" x="72" y="503">47.3</text>
  <line class="axis-line" x1="80" y1="580" x2="920" y2="580" />
  <text class="y-tick-label" x="72" y="584">43.3</text>
  <line class="axis-line-bold" x1="80" y1="338" x2="920" y2="338" />
  <text class="tick-label" x="80" y="602">2020</text>
  <text class="tick-label" x="246" y="602">2021</text>
  <text class="tick-label" x="411" y="602">2022</text>
  <text class="tick-label" x="577" y="602">2023</text>
  <text class="tick-label" x="743" y="602">2024</text>
  <text class="tick-label" x="920" y="602">2025</text>
  <line class="axis-line-bold" x1="80" y1="580" x2="920" y2="580" />
  <line class="axis-line-bold" x1="80" y1="95" x2="80" y2="580" />
  <polyline points="80,445 92,426 104,411 115,493 127,540 139,508 151,456 163,379 175,306 186,389 198,358 210,436 222,370 234,360 246,406 257,325 269,299 281,375 293,364 305,393 317,389 328,407 340,352 352,409 364,397 376,323 388,357 399,348 411,340 423,368 435,342 447,338 459,376 470,305 482,273 494,280 506,305 518,337 530,287 541,293 553,275 565,282 577,257 589,262 601,231 612,238 624,205 636,178 648,183 660,217 672,255 683,285 695,325 707,290 719,292 731,228 743,136 754,135 766,198 778,213 790,216 802,276 814,287 825,275 837,293 849,325 861,355 873,283 885,289 896,323 908,338 920,299" fill="none" stroke="#E63946" stroke-width="2" />
</svg>
