<?xml version="1.0" encoding="utf-8" standalone="yes"?>
<svg xmlns="http://www.w3.org/2000/svg" viewBox="0 0 960 720" preserveAspectRatio="xMidYMid meet">

  <defs>
   <style type="text/css">
    .bg { fill: #FFFFFF; }
    .title { font-family: Arial, sans-serif; font-size: 22px; font-weight: bold; fill: #333333; }
    .subtitle { font-family: Arial, sans-serif; font-size: 14px; fill: #666666; }
    .axis-line { stroke: #CCCCCC; stroke-width: 1; fill: none; }
    .axis-line-bold { stroke: #999999; stroke-width: 1.5; fill: none; }
    .tick-label { font-family: Arial, sans-serif; font-size: 12px; fill: #666666; text-anchor: middle; }
    .y-tick-label { font-family: Arial, sans-serif; font-size: 12px; fill: #666666; text-anchor: end; }
    .bar-label { font-family: Arial, sans-serif; font-size: 11px; fill: #333333; text-anchor: end; }
    .legend-text { font-family: Arial, sans-serif; font-size: 11px; fill: #333333; }
    .source-text { font-family: Arial, sans-serif; font-size: 10px; fill: #999999; }
   </style>
  </defs>
  <rect class="bg" x="0" y="0" width="960" height="720" />
  <text class="title" x="70" y="42">Brazil Real vs USD Exchange Rate</text>
  <text class="subtitle" x="70" y="72">BRL per USD</text>
  <line class="axis-line" x1="80" y1="95" x2="920" y2="95" />
  <text class="y-tick-label" x="72" y="99">5.7</text>
  <line class="axis-line" x1="80" y1="176" x2="920" y2="176" />
  <text class="y-tick-label" x="72" y="180">5.3</text>
  <line class="axis-line" x1="80" y1="257" x2="920" y2="257" />
  <text class="y-tick-label" x="72" y="261">4.9</text>
  <line class="axis-line" x1="80" y1="338" x2="920" y2="338" />
  <text class="y-tick-label" x="72" y="342">4.5</text>
  <line class="axis-line" x1="80" y1="418" x2="920" y2="418" />
  <text class="y-tick-label" x="72" y="422">4.1</text>
  <line class="axis-line" x1="80" y1="499" x2="920" y2="499" />
  <text class="y-tick-label" x="72" y="503">3.6</text>
  <line class="axis-line" x1="80" y1="580" x2="920" y2="580" />
  <text class="y-tick-label" x="72" y="584">3.2</text>
  <line class="axis-line-bold" x1="80" y1="338" x2="920" y2="338" />
  <text class="tick-label" x="80" y="602">2018</text>
  <text class="tick-label" x="195" y="602">2019</text>
  <text class="tick-label" x="319" y="602">2020</text>
  <text class="tick-label" x="434" y="602">2021</text>
  <text class="tick-label" x="557" y="602">2022</text>
  <text class="tick-label" x="672" y="602">2023</text>
  <text class="tick-label" x="796" y="602">2024</text>
  <text class="tick-label" x="920" y="602">2025</text>
  <line class="axis-line-bold" x1="80" y1="580" x2="920" y2="580" />
  <line class="axis-line-bold" x1="80" y1="95" x2="80" y2="580" />
  <polyline points="80,226 89,295 98,326 107,357 115,313 124,288 133,294 142,241 151,270 160,276 168,263 177,172 186,176 195,194 204,253 213,211 221,244 230,222 239,331 248,268 257,344 266,387 275,324 283,400 292,402 301,396 310,452 319,372 328,282 336,396 345,478 354,429 363,503 372,524 381,515 389,472 398,483 407,476 416,519 425,442 434,469 443,447 451,475 460,467 469,475 478,482 487,540 496,491 504,407 513,390 522,346 531,295 540,239 549,219 557,205 566,152 575,146 584,201 593,198 602,306 611,305 619,278 628,204 637,194 646,137 655,135 664,193 672,274 681,328 690,406 699,367 708,378 717,342 725,336 734,273 743,209 752,245 761,259 770,288 779,381 787,340 796,268 805,267 814,294 823,228 832,363 840,351 849,340 858,372 867,288 876,230 885,243 893,246 902,267 911,295 920,369" fill="none" stroke="#2A9D8F" stroke-width="2" />
</svg>
