<?xml version="1.0" encoding="utf-8" standalone="yes"?>
<svg xmlns="http://www.w3.org/2000/svg" viewBox="0 0 960 720" preserveAspectRatio="xMidYMid meet">

  <defs>
   <style type="text/css">
    .bg { fill: #FFFFFF; }
    .title { font-family: Arial, sans-serif; font-size: 22px; font-weight: bold; fill: #333333; }
    .subtitle { font-family: Arial, sans-serif; font-size: 14px; fill: #666666; }
    .axis-line { stroke: #CCCCCC; stroke-width: 1; fill: none; }
    .axis-line-bold { stroke: #999999; stroke-width: 1.5; fill: none; }
    .tick-label { font-family: Arial, sans-serif; font-size: 12px; fill: #666666; text-anchor: middle; }
    .y-tick-label { font-family: Arial, sans-serif; font-size: 12px; fill: #666666; text-anchor: end; }
    .bar-label { font-family: Arial, sans-serif; font-size: 11px; fill: #333333; text-anchor: end; }
    .legend-text { font-family: Arial, sans-serif; font-size: 11px; fill: #333333; }
    .source-text { font-family: Arial, sans-serif; font-size: 10px; fill: #999999; }
   </style>
  </defs>
  <rect class="bg" x="0" y="0" width="960" height="720" />
  <text class="title" x="70" y="42">UK Retail Sales Growth</text>
  <text class="subtitle" x="70" y="72">Year-on-year percentage change</text>
  <line class="axis-line" x1="80" y1="95" x2="920" y2="95" />
  <text class="y-tick-label" x="72" y="99">33.9</text>
  <line class="axis-line" x1="80" y1="176" x2="920" y2="176" />
  <text class="y-tick-label" x="72" y="180">27.8</text>
  <line class="axis-line" x1="80" y1="257" x2="920" y2="257" />
  <text class="y-tick-label" x="72" y="261">21.7</text>
  <line class="axis-line" x1="80" y1="338" x2="920" y2="338" />
  <text class="y-tick-label" x="72" y="342">15.5</text>
  <line class="axis-line" x1="80" y1="418" x2="920" y2="418" />
  <text class="y-tick-label" x="72" y="422">9.4</text>
  <line class="axis-line" x1="80" y1="499" x2="920" y2="499" />
  <text class="y-tick-label" x="72" y="503">3.3</text>
  <line class="axis-line" x1="80" y1="580" x2="920" y2="580" />
  <text class="y-tick-label" x="72" y="584">-2.9</text>
  <line class="axis-line-bold" x1="80" y1="542" x2="920" y2="542" />
  <text class="tick-label" x="80" y="602">2020</text>
  <text class="tick-label" x="246" y="602">2021</text>
  <text class="tick-label" x="411" y="602">2022</text>
  <text class="tick-label" x="577" y="602">2023</text>
  <text class="tick-label" x="743" y="602">2024</text>
  <text class="tick-label" x="920" y="602">2025</text>
  <line class="axis-line-bold" x1="80" y1="580" x2="920" y2="580" />
  <line class="axis-line-bold" x1="80" y1="95" x2="80" y2="580" />
  <polyline points="80,443 92,389 104,347 115,405 127,295 139,190 151,180 163,228 175,274 186,252 198,300 210,302 222,244 234,324 246,218 257,135 269,201 281,275 293,290 305,344 317,358 328,494 340,507 352,411 364,470 376,485 388,540 399,506 411,518 423,415 435,405 447,424 459,395 470,422 482,492 494,477 506,486 518,477 530,457 541,484 553,462 565,370 577,429 589,337 601,350 612,390 624,262 636,254 648,182 660,139 672,227 683,221 695,249 707,319 719,413 731,408 743,376 754,356 766,372 778,414 790,466 802,495 814,540 825,540 837,540 849,540 861,540 873,540 885,540 896,513 908,503 920,479" fill="none" stroke="#457B9D" stroke-width="2" />
</svg>
