<?xml version="1.0" encoding="utf-8" standalone="yes"?>
<svg xmlns="http://www.w3.org/2000/svg" viewBox="0 0 960 720" preserveAspectRatio="xMidYMid meet">

  <defs>
   <style type="text/css">
    .bg { fill: #FFFFFF; }
    .title { font-family: Arial, sans-serif; font-size: 22px; font-weight: bold; fill: #333333; }
    .subtitle { font-family: Arial, sans-serif; font-size: 14px; fill: #666666; }
    .axis-line { stroke: #CCCCCC; stroke-width: 1; fill: none; }
    .axis-line-bold { stroke: #999999; stroke-width: 1.5; fill: none; }
    .tick-label { font-family: Arial, sans-serif; font-size: 12px; fill: #666666; text-anchor: middle; }
    .y-tick-label { font-family: Arial, sans-serif; font-size: 12px; fill: #666666; text-anchor: end; }
    .bar-label { font-family: Arial, sans-serif; font-size: 11px; fill: #333333; text-anchor: end; }
    .legend-text { font-family: Arial, sans-serif; font-size: 11px; fill: #333333; }
    .source-text { font-family: Arial, sans-serif; font-size: 10px; fill: #999999; }
   </style>
  </defs>
  <rect class="bg" x="0" y="0" width="960" height="720" />
  <text class="title" x="70" y="42">India Rupee vs USD</text>
  <text class="subtitle" x="70" y="72">INR per USD</text>
  <line class="axis-line" x1="80" y1="95" x2="920" y2="95" />
  <text class="y-tick-label" x="72" y="99">87.0</text>
  <line class="axis-line" x1="80" y1="176" x2="920" y2="176" />
  <text class="y-tick-label" x="72" y="180">79.4</text>
  <line class="axis-line" x1="80" y1="257" x2="920" y2="257" />
  <text class="y-tick-label" x="72" y="261">71.8</text>
  <line class="axis-line" x1="80" y1="338" x2="920" y2="338" />
  <text class="y-tick-label" x="72" y="342">64.1</text>
  <line class="axis-line" x1="80" y1="418" x2="920" y2="418" />
  <text class="y-tick-label" x="72" y="422">56.5</text>
  <line class="axis-line" x1="80" y1="499" x2="920" y2="499" />
  <text class="y-tick-label" x="72" y="503">48.9</text>
  <line class="axis-line" x1="80" y1="580" x2="920" y2="580" />
  <text class="y-tick-label" x="72" y="584">41.3</text>
  <line class="axis-line-bold" x1="80" y1="338" x2="920" y2="338" />
  <text class="tick-label" x="80" y="602">2018</text>
  <text class="tick-label" x="195" y="602">2019</text>
  <text class="tick-label" x="319" y="602">2020</text>
  <text class="tick-label" x="434" y="602">2021</text>
  <text class="tick-label" x="557" y="602">2022</text>
  <text class="tick-label" x="672" y="602">2023</text>
  <text class="tick-label" x="796" y="602">2024</text>
  <text class="tick-label" x="920" y="602">2025</text>
  <line class="axis-line-bold" x1="80" y1="580" x2="920" y2="580" />
  <line class="axis-line-bold" x1="80" y1="95" x2="80" y2="580" />
  <polyline points="80,225 89,233 98,226 107,212 115,245 124,241 133,215 142,219 151,220 160,210 168,204 177,189 186,187 195,184 204,200 213,203 221,176 230,179 239,182 248,192 257,175 266,193 275,173 283,192 292,214 301,209 310,206 319,199 328,176 336,184 345,174 354,193 363,166 372,152 381,140 389,135 398,152 407,158 416,147 425,147 434,144 443,172 451,167 460,182 469,204 478,207 487,246 496,230 504,212 513,212 522,233 531,252 540,255 549,306 557,302 566,287 575,293 584,303 593,299 602,291 611,267 619,266 628,280 637,289 646,285 655,251 664,258 672,279 681,297 690,341 699,334 708,362 717,388 725,429 734,452 743,440 752,467 761,504 770,499 779,506 787,496 796,480 805,480 814,507 823,509 832,498 840,510 849,540 858,516 867,524 876,532 885,531 893,509 902,503 911,509 920,494" fill="none" stroke="#E63946" stroke-width="2" />
</svg>
