<?xml version="1.0" encoding="utf-8" standalone="yes"?>
<svg xmlns="http://www.w3.org/2000/svg" viewBox="0 0 960 720" preserveAspectRatio="xMidYMid meet">

  <defs>
   <style type="text/css">
    .bg { fill: #FFFFFF; }
    .title { font-family: Arial, sans-serif; font-size: 22px; font-weight: bold; fill: #333333; }
    .subtitle { font-family: Arial, sans-serif; font-size: 14px; fill: #666666; }
    .axis-line { stroke: #CCCCCC; stroke-width: 1; fill: none; }
    .axis-line-bold { stroke: #999999; stroke-width: 1.5; fill: none; }
    .tick-label { font-family: Arial, sans-serif; font-size: 12px; fill: #666666; text-anchor: middle; }
    .y-tick-label { font-family: Arial, sans-serif; font-size: 12px; fill: #666666; text-anchor: end; }
    .bar-label { font-family: Arial, sans-serif; font-size: 11px; fill: #333333; text-anchor: end; }
    .legend-text { font-family: Arial, sans-serif; font-size: 11px; fill: #333333; }
    .source-text { font-family: Arial, sans-serif; font-size: 10px; fill: #999999; }
   </style>
  </defs>
  <rect class="bg" x="0" y="0" width="960" height="720" />
  <text class="title" x="70" y="42">Australian Dollar vs USD</text>
  <text class="subtitle" x="70" y="72">AUD per USD</text>
  <line class="axis-line" x1="80" y1="95" x2="920" y2="95" />
  <text class="y-tick-label" x="72" y="99">0.9</text>
  <line class="axis-line" x1="80" y1="176" x2="920" y2="176" />
  <text class="y-tick-label" x="72" y="180">0.9</text>
  <line class="axis-line" x1="80" y1="257" x2="920" y2="257" />
  <text class="y-tick-label" x="72" y="261">0.8</text>
  <line class="axis-line" x1="80" y1="338" x2="920" y2="338" />
  <text class="y-tick-label" x="72" y="342">0.7</text>
  <line class="axis-line" x1="80" y1="418" x2="920" y2="418" />
  <text class="y-tick-label" x="72" y="422">0.6</text>
  <line class="axis-line" x1="80" y1="499" x2="920" y2="499" />
  <text class="y-tick-label" x="72" y="503">0.6</text>
  <line class="axis-line" x1="80" y1="580" x2="920" y2="580" />
  <text class="y-tick-label" x="72" y="584">0.5</text>
  <line class="axis-line-bold" x1="80" y1="338" x2="920" y2="338" />
  <text class="tick-label" x="80" y="602">2018</text>
  <text class="tick-label" x="195" y="602">2019</text>
  <text class="tick-label" x="319" y="602">2020</text>
  <text class="tick-label" x="434" y="602">2021</text>
  <text class="tick-label" x="557" y="602">2022</text>
  <text class="tick-label" x="672" y="602">2023</text>
  <text class="tick-label" x="796" y="602">2024</text>
  <text class="tick-label" x="920" y="602">2025</text>
  <line class="axis-line-bold" x1="80" y1="580" x2="920" y2="580" />
  <line class="axis-line-bold" x1="80" y1="95" x2="80" y2="580" />
  <polyline points="80,284 89,240 98,219 107,254 115,135 124,173 133,185 142,207 151,156 160,142 168,188 177,179 186,162 195,172 204,211 213,234 221,247 230,247 239,263 248,240 257,270 266,325 275,348 283,305 292,324 301,249 310,234 319,271 328,297 336,289 345,327 354,252 363,283 372,261 381,215 389,219 398,250 407,259 416,247 425,220 434,218 443,262 451,261 460,282 469,351 478,373 487,419 496,400 504,339 513,280 522,298 531,313 540,291 549,257 557,270 566,275 575,205 584,209 593,224 602,220 611,202 619,234 628,242 637,279 646,288 655,228 664,205 672,208 681,237 690,247 699,214 708,232 717,186 725,229 734,238 743,183 752,247 761,209 770,268 779,271 787,276 796,250 805,350 814,411 823,428 832,427 840,456 849,463 858,500 867,513 876,540 885,532 893,513 902,468 911,489 920,499" fill="none" stroke="#96CEB4" stroke-width="2" />
</svg>
