<?xml version="1.0" encoding="utf-8" standalone="yes"?>
<svg xmlns="http://www.w3.org/2000/svg" viewBox="0 0 960 720" preserveAspectRatio="xMidYMid meet">

  <defs>
   <style type="text/css">
    .bg { fill: #FFFFFF; }
    .title { font-family: Arial, sans-serif; font-size: 22px; font-weight: bold; fill: #333333; }
    .subtitle { font-family: Arial, sans-serif; font-size: 14px; fill: #666666; }
    .axis-line { stroke: #CCCCCC; stroke-width: 1; fill: none; }
    .axis-line-bold { stroke: #999999; stroke-width: 1.5; fill: none; }
    .tick-label { font-family: Arial, sans-serif; font-size: 12px; fill: #666666; text-anchor: middle; }
    .y-tick-label { font-family: Arial, sans-serif; font-size: 12px; fill: #666666; text-anchor: end; }
    .bar-label { font-family: Arial, sans-serif; font-size: 11px; fill: #333333; text-anchor: end; }
    .legend-text { font-family: Arial, sans-serif; font-size: 11px; fill: #333333; }
    .source-text { font-family: Arial, sans-serif; font-size: 10px; fill: #999999; }
   </style>
  </defs>
  <rect class="bg" x="0" y="0" width="960" height="720" />
  <text class="title" x="70" y="42">US CPI vs Core CPI</text>
  <text class="subtitle" x="70" y="72">Year-on-year percentage change</text>
  <line class="axis-line" x1="80" y1="95" x2="920" y2="95" />
  <text class="y-tick-label" x="72" y="99">8.7</text>
  <line class="axis-line" x1="80" y1="176" x2="920" y2="176" />
  <text class="y-tick-label" x="72" y="180">7.3</text>
  <line class="axis-line" x1="80" y1="257" x2="920" y2="257" />
  <text class="y-tick-label" x="72" y="261">6.0</text>
  <line class="axis-line" x1="80" y1="338" x2="920" y2="338" />
  <text class="y-tick-label" x="72" y="342">4.6</text>
  <line class="axis-line" x1="80" y1="418" x2="920" y2="418" />
  <text class="y-tick-label" x="72" y="422">3.2</text>
  <line class="axis-line" x1="80" y1="499" x2="920" y2="499" />
  <text class="y-tick-label" x="72" y="503">1.9</text>
  <line class="axis-line" x1="80" y1="580" x2="920" y2="580" />
  <text class="y-tick-label" x="72" y="584">0.5</text>
  <line class="axis-line" x1="80" y1="580" x2="80" y2="586" />
  <text class="tick-label" x="80" y="602">2018</text>
  <line class="axis-line" x1="200" y1="580" x2="200" y2="586" />
  <text class="tick-label" x="200" y="602">2019</text>
  <line class="axis-line" x1="320" y1="580" x2="320" y2="586" />
  <text class="tick-label" x="320" y="602">2020</text>
  <line class="axis-line" x1="440" y1="580" x2="440" y2="586" />
  <text class="tick-label" x="440" y="602">2021</text>
  <line class="axis-line" x1="560" y1="580" x2="560" y2="586" />
  <text class="tick-label" x="560" y="602">2022</text>
  <line class="axis-line" x1="680" y1="580" x2="680" y2="586" />
  <text class="tick-label" x="680" y="602">2023</text>
  <line class="axis-line" x1="800" y1="580" x2="800" y2="586" />
  <text class="tick-label" x="800" y="602">2024</text>
  <line class="axis-line" x1="920" y1="580" x2="920" y2="586" />
  <text class="tick-label" x="920" y="602">2025</text>
  <line class="axis-line-bold" x1="80" y1="580" x2="920" y2="580" />
  <line class="axis-line-bold" x1="80" y1="95" x2="80" y2="580" />
  <polyline points="80,468 200,504 320,540 440,332 560,135 680,367 800,439 920,462" fill="none" stroke="#E63946" stroke-width="2.5" />
  <polyline points="80,486 200,480 320,516 440,397 560,242 680,326 800,409 920,444" fill="none" stroke="#457B9D" stroke-width="2.5" />
  <line x1="80" y1="650" x2="100" y2="650" stroke="#E63946" stroke-width="2.5" />
  <text class="legend-text" x="105" y="654">CPI</text>
  <line x1="260" y1="650" x2="280" y2="650" stroke="#457B9D" stroke-width="2.5" />
  <text class="legend-text" x="285" y="654">Core CPI</text>
</svg>
