<?xml version="1.0" encoding="utf-8" standalone="yes"?>
<svg xmlns="http://www.w3.org/2000/svg" viewBox="0 0 960 720" preserveAspectRatio="xMidYMid meet">

  <defs>
   <style type="text/css">
    .bg { fill: #FFFFFF; }
    .title { font-family: Arial, sans-serif; font-size: 22px; font-weight: bold; fill: #333333; }
    .subtitle { font-family: Arial, sans-serif; font-size: 14px; fill: #666666; }
    .axis-line { stroke: #CCCCCC; stroke-width: 1; fill: none; }
    .axis-line-bold { stroke: #999999; stroke-width: 1.5; fill: none; }
    .tick-label { font-family: Arial, sans-serif; font-size: 12px; fill: #666666; text-anchor: middle; }
    .y-tick-label { font-family: Arial, sans-serif; font-size: 12px; fill: #666666; text-anchor: end; }
    .bar-label { font-family: Arial, sans-serif; font-size: 11px; fill: #333333; text-anchor: end; }
    .legend-text { font-family: Arial, sans-serif; font-size: 11px; fill: #333333; }
    .source-text { font-family: Arial, sans-serif; font-size: 10px; fill: #999999; }
   </style>
  </defs>
  <rect class="bg" x="0" y="0" width="960" height="720" />
  <text class="title" x="70" y="42">Global Crude Steel Production</text>
  <text class="subtitle" x="70" y="72">Million metric tons, top producers</text>
  <line class="axis-line" x1="80" y1="95" x2="920" y2="95" />
  <text class="y-tick-label" x="72" y="99">1161.5</text>
  <line class="axis-line" x1="80" y1="176" x2="920" y2="176" />
  <text class="y-tick-label" x="72" y="180">968.5</text>
  <line class="axis-line" x1="80" y1="257" x2="920" y2="257" />
  <text class="y-tick-label" x="72" y="261">775.5</text>
  <line class="axis-line" x1="80" y1="338" x2="920" y2="338" />
  <text class="y-tick-label" x="72" y="342">582.5</text>
  <line class="axis-line" x1="80" y1="418" x2="920" y2="418" />
  <text class="y-tick-label" x="72" y="422">389.5</text>
  <line class="axis-line" x1="80" y1="499" x2="920" y2="499" />
  <text class="y-tick-label" x="72" y="503">196.5</text>
  <line class="axis-line" x1="80" y1="580" x2="920" y2="580" />
  <text class="y-tick-label" x="72" y="584">3.5</text>
  <line class="axis-line" x1="80" y1="580" x2="80" y2="586" />
  <text class="tick-label" x="80" y="602">2018</text>
  <line class="axis-line" x1="200" y1="580" x2="200" y2="586" />
  <text class="tick-label" x="200" y="602">2019</text>
  <line class="axis-line" x1="320" y1="580" x2="320" y2="586" />
  <text class="tick-label" x="320" y="602">2020</text>
  <line class="axis-line" x1="440" y1="580" x2="440" y2="586" />
  <text class="tick-label" x="440" y="602">2021</text>
  <line class="axis-line" x1="560" y1="580" x2="560" y2="586" />
  <text class="tick-label" x="560" y="602">2022</text>
  <line class="axis-line" x1="680" y1="580" x2="680" y2="586" />
  <text class="tick-label" x="680" y="602">2023</text>
  <line class="axis-line" x1="800" y1="580" x2="800" y2="586" />
  <text class="tick-label" x="800" y="602">2024</text>
  <line class="axis-line" x1="920" y1="580" x2="920" y2="586" />
  <text class="tick-label" x="920" y="602">2025</text>
  <line class="axis-line-bold" x1="80" y1="580" x2="920" y2="580" />
  <line class="axis-line-bold" x1="80" y1="95" x2="80" y2="580" />
  <polyline points="80,193 200,164 320,135 440,149 560,155 680,155 800,161 920,167" fill="none" stroke="#E63946" stroke-width="2.5" />
  <polyline points="80,536 200,535 320,540 440,532 560,529 680,523 800,519 920,517" fill="none" stroke="#2A9D8F" stroke-width="2.5" />
  <polyline points="80,511 200,515 320,523 440,517 560,524 680,528 800,527 920,526" fill="none" stroke="#457B9D" stroke-width="2.5" />
  <line x1="80" y1="650" x2="100" y2="650" stroke="#E63946" stroke-width="2.5" />
  <text class="legend-text" x="105" y="654">China</text>
  <line x1="260" y1="650" x2="280" y2="650" stroke="#2A9D8F" stroke-width="2.5" />
  <text class="legend-text" x="285" y="654">India</text>
  <line x1="440" y1="650" x2="460" y2="650" stroke="#457B9D" stroke-width="2.5" />
  <text class="legend-text" x="465" y="654">EU</text>
</svg>
