<?xml version="1.0" encoding="utf-8" standalone="yes"?>
<svg xmlns="http://www.w3.org/2000/svg" viewBox="0 0 960 720" preserveAspectRatio="xMidYMid meet">

  <defs>
   <style type="text/css">
    .bg { fill: #FFFFFF; }
    .title { font-family: Arial, sans-serif; font-size: 22px; font-weight: bold; fill: #333333; }
    .subtitle { font-family: Arial, sans-serif; font-size: 14px; fill: #666666; }
    .axis-line { stroke: #CCCCCC; stroke-width: 1; fill: none; }
    .axis-line-bold { stroke: #999999; stroke-width: 1.5; fill: none; }
    .tick-label { font-family: Arial, sans-serif; font-size: 12px; fill: #666666; text-anchor: middle; }
    .y-tick-label { font-family: Arial, sans-serif; font-size: 12px; fill: #666666; text-anchor: end; }
    .bar-label { font-family: Arial, sans-serif; font-size: 11px; fill: #333333; text-anchor: end; }
    .legend-text { font-family: Arial, sans-serif; font-size: 11px; fill: #333333; }
    .source-text { font-family: Arial, sans-serif; font-size: 10px; fill: #999999; }
   </style>
  </defs>
  <rect class="bg" x="0" y="0" width="960" height="720" />
  <text class="title" x="70" y="42">Amazon Deforestation Rate</text>
  <text class="subtitle" x="70" y="72">Square kilometres per year</text>
  <line class="axis-line" x1="80" y1="95" x2="920" y2="95" />
  <text class="y-tick-label" x="72" y="99">14101.4</text>
  <line class="axis-line" x1="80" y1="176" x2="920" y2="176" />
  <text class="y-tick-label" x="72" y="180">12368.6</text>
  <line class="axis-line" x1="80" y1="257" x2="920" y2="257" />
  <text class="y-tick-label" x="72" y="261">10635.8</text>
  <line class="axis-line" x1="80" y1="338" x2="920" y2="338" />
  <text class="y-tick-label" x="72" y="342">8903.0</text>
  <line class="axis-line" x1="80" y1="418" x2="920" y2="418" />
  <text class="y-tick-label" x="72" y="422">7170.2</text>
  <line class="axis-line" x1="80" y1="499" x2="920" y2="499" />
  <text class="y-tick-label" x="72" y="503">5437.4</text>
  <line class="axis-line" x1="80" y1="580" x2="920" y2="580" />
  <text class="y-tick-label" x="72" y="584">3704.6</text>
  <line class="axis-line" x1="80" y1="580" x2="80" y2="586" />
  <text class="tick-label" x="80" y="602">2010</text>
  <line class="axis-line" x1="192" y1="580" x2="192" y2="586" />
  <text class="tick-label" x="192" y="602">2012</text>
  <line class="axis-line" x1="304" y1="580" x2="304" y2="586" />
  <text class="tick-label" x="304" y="602">2014</text>
  <line class="axis-line" x1="416" y1="580" x2="416" y2="586" />
  <text class="tick-label" x="416" y="602">2016</text>
  <line class="axis-line" x1="528" y1="580" x2="528" y2="586" />
  <text class="tick-label" x="528" y="602">2018</text>
  <line class="axis-line" x1="640" y1="580" x2="640" y2="586" />
  <text class="tick-label" x="640" y="602">2020</text>
  <line class="axis-line" x1="752" y1="580" x2="752" y2="586" />
  <text class="tick-label" x="752" y="602">2022</text>
  <line class="axis-line" x1="864" y1="580" x2="864" y2="586" />
  <text class="tick-label" x="864" y="602">2024</text>
  <line class="axis-line-bold" x1="80" y1="580" x2="920" y2="580" />
  <line class="axis-line-bold" x1="80" y1="95" x2="80" y2="580" />
  <polyline points="80,426 136,453 192,540 248,478 304,519 360,463 416,385 472,429 528,401 584,280 640,236 696,135 752,213 808,333 864,370 920,403" fill="none" stroke="#2A9D8F" stroke-width="2.5" />
  <line x1="80" y1="650" x2="100" y2="650" stroke="#2A9D8F" stroke-width="2.5" />
  <text class="legend-text" x="105" y="654">Deforestation</text>
</svg>
